<svg width="89" height="87" viewBox="0 0 89 87" fill="none" xmlns="http://www.w3.org/2000/svg">
<path d="M71.6836 47.5171L70.7676 46.8069C68.2644 44.8613 65.5509 43.2024 62.6779 41.8613L62.3954 41.7329V41.4249C62.5152 40.1072 62.5751 38.7639 62.5751 37.4376C62.5781 35.5548 62.4552 33.6739 62.207 31.8075L62.0701 30.6267L62.9261 31.4225C67.3104 35.3615 70.3116 40.605 71.4867 46.3791L71.6836 47.5171ZM63.3199 41.2024C65.7921 42.3792 68.1481 43.7858 70.3567 45.4036C69.1832 40.658 66.7249 36.327 63.2514 32.8856C63.4061 34.398 63.4833 35.9173 63.4826 37.4376C63.4826 38.6868 63.4312 39.9532 63.3199 41.2024Z" fill="#191919" stroke="#191919" stroke-width="2"/>
<path d="M17.5552 47.5171L17.7778 46.3791C18.9354 40.6097 21.9151 35.3641 26.2784 31.4139L27.1345 30.6267L26.9804 31.7904C26.7336 33.6627 26.6107 35.5492 26.6123 37.4376C26.6123 38.7639 26.6722 40.1072 26.792 41.4249V41.7244L26.5181 41.8613C23.6412 43.2003 20.9246 44.8593 18.4198 46.8069L17.5552 47.5171ZM26.0045 32.877C22.5379 36.3231 20.0884 40.6573 18.9249 45.4036C21.1335 43.7858 23.4894 42.3792 25.9617 41.2024C25.8504 39.9532 25.799 38.6868 25.799 37.4376C25.7975 35.9142 25.8775 34.3919 26.0387 32.877H26.0045Z" fill="#191919" stroke="#191919" stroke-width="2"/>
<path d="M27.4426 72.9468L27.28 72.8099C22.2311 68.6671 18.833 62.8545 17.7007 56.4244V56.1762L17.812 56.0564C20.6049 52.9888 23.9027 50.4219 27.5625 48.4669L28.0418 48.2102L28.1874 48.7407C30.1537 55.863 33.942 62.3506 39.1791 67.5648L39.5644 67.9498L39.1021 68.2407C35.5807 70.4343 31.7052 72.0006 27.6481 72.8698L27.4426 72.9468ZM18.5995 56.4842C19.7176 62.5586 22.9281 68.05 27.6737 72.0056C31.3788 71.1848 34.9261 69.7689 38.1776 67.8129C33.161 62.6894 29.4907 56.4048 27.494 49.5193C24.1746 51.3491 21.1714 53.7008 18.5995 56.4842Z" fill="#191919" stroke="#191919" stroke-width="2"/>
<path d="M44.6406 64.0654L44.341 63.783C39.3099 59.0307 35.7453 52.9381 34.0683 46.2253L33.9741 45.8146L34.3679 45.7033C41.076 43.7434 48.2052 43.7434 54.9133 45.7033L55.23 45.7889V46.2253C53.5521 52.9347 49.9839 59.0223 44.9488 63.7659L44.6406 64.0654ZM35.0271 46.4049C36.6651 52.6605 39.9905 58.3462 44.6406 62.8418C49.2906 58.3462 52.6161 52.6605 54.2541 46.4049C47.9652 44.6508 41.3159 44.6508 35.0271 46.4049Z" fill="#191919" stroke="#191919" stroke-width="2"/>
<path d="M56.2233 39.4572L55.6925 39.3117C48.4495 37.395 40.8322 37.395 33.5891 39.3117L33.0584 39.4572V38.9096C33.0584 38.4219 33.0584 37.9256 33.0584 37.4379C33.0528 33.6921 33.6305 29.9683 34.7705 26.4001L34.8304 26.1948L35.0273 26.1263C41.2523 23.7877 48.115 23.7877 54.34 26.1263L54.5369 26.2033L54.6053 26.4001C55.7407 29.9694 56.3182 33.6925 56.3174 37.4379C56.3174 37.9256 56.3174 38.4219 56.3174 38.9096L56.2233 39.4572ZM44.6408 37.0015C48.2636 36.9987 51.8726 37.447 55.3843 38.3363C55.3843 38.0368 55.3843 37.7373 55.3843 37.4807C55.3886 33.8942 54.8459 30.328 53.775 26.9049C47.8672 24.7356 41.3803 24.7356 35.4725 26.9049C34.4009 30.3278 33.8582 33.8941 33.8631 37.4807C33.8631 37.7801 33.8631 38.0796 33.8631 38.3363C37.3858 37.4432 41.0066 36.9947 44.6408 37.0015Z" fill="#191919" stroke="#191919" stroke-width="2"/>
<path d="M44.6406 79.0218C41.7714 79.0234 38.92 78.573 36.1913 77.687L35.0613 77.3276L36.157 76.8998C39.0592 75.7064 41.8209 74.1971 44.3923 72.3992L44.6406 72.228L44.8888 72.3992C47.4613 74.1953 50.2228 75.7046 53.1241 76.8998L54.2198 77.3533L53.0898 77.7127C50.3593 78.5884 47.5082 79.0302 44.6406 79.0218ZM37.5952 77.2079C42.2061 78.457 47.0665 78.457 51.6773 77.2079C49.215 76.1129 46.8593 74.7925 44.6406 73.2634C42.4199 74.7943 40.0613 76.1149 37.5952 77.2079Z" fill="#191919" stroke="#191919" stroke-width="2"/>
<path d="M61.8305 72.9382L61.625 72.8954C57.5714 72.0236 53.6991 70.4575 50.1796 68.2664L49.7173 67.9755L50.1025 67.5904C55.3353 62.3728 59.1228 55.8864 61.0943 48.7663L61.2398 48.2444L61.7192 48.5011C65.3814 50.4421 68.6848 52.9944 71.4868 56.0478L71.6323 56.2104V56.4158C70.4819 62.856 67.0625 68.6716 61.9931 72.8098L61.8305 72.9382ZM51.1041 67.8043C54.3564 69.7586 57.9034 71.1745 61.6079 71.997C66.3487 68.0386 69.5557 62.548 70.6736 56.4756C68.1031 53.6965 65.103 51.3479 61.7877 49.5193C59.7886 56.4037 56.1187 62.6878 51.1041 67.8129V67.8043Z" fill="#191919" stroke="#191919" stroke-width="2"/>
<path d="M17.5552 47.5171L17.7778 46.3791C18.9354 40.6097 21.9151 35.3641 26.2784 31.4139L27.1345 30.6267L26.9804 31.7904C26.7336 33.6627 26.6107 35.5492 26.6123 37.4376C26.6123 38.7639 26.6722 40.1072 26.792 41.4249V41.7244L26.5181 41.8613C23.6412 43.2003 20.9246 44.8593 18.4198 46.8069L17.5552 47.5171ZM26.0045 32.877C22.5379 36.3231 20.0884 40.6573 18.9249 45.4036C21.1335 43.7858 23.4894 42.3792 25.9617 41.2024C25.8504 39.9532 25.799 38.6868 25.799 37.4376C25.7975 35.9142 25.8775 34.3919 26.0387 32.877H26.0045Z" fill="#191919" stroke="#191919" stroke-width="2"/>
<path d="M27.4426 72.9468L27.28 72.8099C22.2311 68.6671 18.833 62.8545 17.7007 56.4244V56.1762L17.812 56.0564C20.6049 52.9888 23.9027 50.4219 27.5625 48.4669L28.0418 48.2102L28.1874 48.7407C30.1537 55.863 33.942 62.3506 39.1791 67.5648L39.5644 67.9498L39.1021 68.2407C35.5807 70.4343 31.7052 72.0006 27.6481 72.8698L27.4426 72.9468ZM18.5995 56.4842C19.7176 62.5586 22.9281 68.05 27.6737 72.0056C31.3788 71.1848 34.9261 69.7689 38.1776 67.8129C33.161 62.6894 29.4907 56.4048 27.494 49.5193C24.1746 51.3491 21.1714 53.7008 18.5995 56.4842Z" fill="#191919" stroke="#191919" stroke-width="2"/>
<path d="M44.6406 64.0654L44.341 63.783C39.3099 59.0307 35.7453 52.9381 34.0683 46.2253L33.9741 45.8146L34.3679 45.7033C41.076 43.7434 48.2052 43.7434 54.9133 45.7033L55.23 45.7889V46.2253C53.5521 52.9347 49.9839 59.0223 44.9488 63.7659L44.6406 64.0654ZM35.0271 46.4049C36.6651 52.6605 39.9905 58.3462 44.6406 62.8418C49.2906 58.3462 52.6161 52.6605 54.2541 46.4049C47.9652 44.6508 41.3159 44.6508 35.0271 46.4049Z" fill="#191919" stroke="#191919" stroke-width="2"/>
<path d="M56.2233 39.4572L55.6925 39.3117C48.4495 37.395 40.8322 37.395 33.5891 39.3117L33.0584 39.4572V38.9096C33.0584 38.4219 33.0584 37.9256 33.0584 37.4379C33.0528 33.6921 33.6305 29.9683 34.7705 26.4001L34.8304 26.1948L35.0273 26.1263C41.2523 23.7877 48.115 23.7877 54.34 26.1263L54.5369 26.2033L54.6053 26.4001C55.7407 29.9694 56.3182 33.6925 56.3174 37.4379C56.3174 37.9256 56.3174 38.4219 56.3174 38.9096L56.2233 39.4572ZM44.6408 37.0015C48.2636 36.9987 51.8726 37.447 55.3843 38.3363C55.3843 38.0368 55.3843 37.7373 55.3843 37.4807C55.3886 33.8942 54.8459 30.328 53.775 26.9049C47.8672 24.7356 41.3803 24.7356 35.4725 26.9049C34.4009 30.3278 33.8582 33.8941 33.8631 37.4807C33.8631 37.7801 33.8631 38.0796 33.8631 38.3363C37.3858 37.4432 41.0066 36.9947 44.6408 37.0015Z" fill="#191919" stroke="#191919" stroke-width="2"/>
<path d="M44.6406 79.0218C41.7714 79.0234 38.92 78.573 36.1913 77.687L35.0613 77.3276L36.157 76.8998C39.0592 75.7064 41.8209 74.1971 44.3923 72.3992L44.6406 72.228L44.8888 72.3992C47.4613 74.1953 50.2228 75.7046 53.1241 76.8998L54.2198 77.3533L53.0898 77.7127C50.3593 78.5884 47.5082 79.0302 44.6406 79.0218ZM37.5952 77.2079C42.2061 78.457 47.0665 78.457 51.6773 77.2079C49.215 76.1129 46.8593 74.7925 44.6406 73.2634C42.4199 74.7943 40.0613 76.1149 37.5952 77.2079Z" fill="#191919" stroke="#191919" stroke-width="2"/>
<path d="M61.8305 72.9382L61.625 72.8954C57.5714 72.0236 53.6991 70.4575 50.1796 68.2664L49.7173 67.9755L50.1025 67.5904C55.3353 62.3728 59.1228 55.8864 61.0943 48.7663L61.2398 48.2444L61.7192 48.5011C65.3814 50.4421 68.6848 52.9944 71.4868 56.0478L71.6323 56.2104V56.4158C70.4819 62.856 67.0625 68.6716 61.9931 72.8098L61.8305 72.9382ZM51.1041 67.8043C54.3564 69.7586 57.9034 71.1745 61.6079 71.997C66.3487 68.0386 69.5557 62.548 70.6736 56.4756C68.1031 53.6965 65.103 51.3479 61.7877 49.5193C59.7886 56.4037 56.1187 62.6878 51.1041 67.8129V67.8043Z" fill="#191919" stroke="#191919" stroke-width="2"/>
<path d="M71.6836 47.5171L70.7676 46.8069C68.2644 44.8613 65.5509 43.2024 62.6779 41.8613L62.3954 41.7329V41.4249C62.5152 40.1072 62.5751 38.7639 62.5751 37.4376C62.5781 35.5548 62.4552 33.6739 62.207 31.8075L62.0701 30.6267L62.9261 31.4225C67.3104 35.3615 70.3116 40.605 71.4867 46.3791L71.6836 47.5171ZM63.3199 41.2024C65.7921 42.3792 68.1481 43.7858 70.3567 45.4036C69.1832 40.658 66.7249 36.327 63.2514 32.8856C63.4061 34.398 63.4833 35.9173 63.4826 37.4376C63.4826 38.6868 63.4312 39.9532 63.3199 41.2024Z" fill="#191919" stroke="#191919" stroke-width="2"/>
<path d="M37.6812 19.5719L38.1777 18.7163C39.871 15.8802 41.9448 13.2893 44.3413 11.0155L44.6409 10.7332L44.9405 11.0155C47.3366 13.2897 49.4103 15.8806 51.1041 18.7163L51.6006 19.5719L50.6504 19.4008C46.6882 18.6782 42.6278 18.6782 38.6656 19.4008L37.6812 19.5719ZM44.6409 17.9804C46.3864 17.9815 48.1293 18.1159 49.8543 18.3826C48.3694 16.0605 46.6199 13.9185 44.6409 11.9995C42.6614 13.918 40.9119 16.0601 39.4275 18.3826C41.1532 18.1245 42.896 17.9986 44.6409 18.0061V17.9804Z" fill="#191919" stroke="#191919" stroke-width="2"/>
<path d="M71.6836 47.5171L70.7676 46.8069C68.2644 44.8613 65.5509 43.2024 62.6779 41.8613L62.3954 41.7329V41.4249C62.5152 40.1072 62.5751 38.7639 62.5751 37.4376C62.5781 35.5548 62.4552 33.6739 62.207 31.8075L62.0701 30.6267L62.9261 31.4225C67.3104 35.3615 70.3116 40.605 71.4867 46.3791L71.6836 47.5171ZM63.3199 41.2024C65.7921 42.3792 68.1481 43.7858 70.3567 45.4036C69.1832 40.658 66.7249 36.327 63.2514 32.8856C63.4061 34.398 63.4833 35.9173 63.4826 37.4376C63.4826 38.6868 63.4312 39.9532 63.3199 41.2024Z" fill="#191919" stroke="#191919" stroke-width="2"/>
<path d="M44.6406 64.0654L44.341 63.783C39.3099 59.0307 35.7453 52.9381 34.0683 46.2253L33.9741 45.8146L34.3679 45.7033C41.076 43.7434 48.2052 43.7434 54.9133 45.7033L55.23 45.7889V46.2253C53.5521 52.9347 49.9839 59.0223 44.9488 63.7659L44.6406 64.0654ZM35.0271 46.4049C36.6651 52.6605 39.9905 58.3462 44.6406 62.8418C49.2906 58.3462 52.6161 52.6605 54.2541 46.4049C47.9652 44.6508 41.3159 44.6508 35.0271 46.4049Z" fill="#191919" stroke="#191919" stroke-width="2"/>
<path d="M56.2233 39.4572L55.6925 39.3117C48.4495 37.395 40.8322 37.395 33.5891 39.3117L33.0584 39.4572V38.9096C33.0584 38.4219 33.0584 37.9256 33.0584 37.4379C33.0528 33.6921 33.6305 29.9683 34.7705 26.4001L34.8304 26.1948L35.0273 26.1263C41.2523 23.7877 48.115 23.7877 54.34 26.1263L54.5369 26.2033L54.6053 26.4001C55.7407 29.9694 56.3182 33.6925 56.3174 37.4379C56.3174 37.9256 56.3174 38.4219 56.3174 38.9096L56.2233 39.4572ZM44.6408 37.0015C48.2636 36.9987 51.8726 37.447 55.3843 38.3363C55.3843 38.0368 55.3843 37.7373 55.3843 37.4807C55.3886 33.8942 54.8459 30.328 53.775 26.9049C47.8672 24.7356 41.3803 24.7356 35.4725 26.9049C34.4009 30.3278 33.8582 33.8941 33.8631 37.4807C33.8631 37.7801 33.8631 38.0796 33.8631 38.3363C37.3858 37.4432 41.0066 36.9947 44.6408 37.0015Z" fill="#191919" stroke="#191919" stroke-width="2"/>
<path d="M61.8305 72.9382L61.625 72.8954C57.5714 72.0236 53.6991 70.4575 50.1796 68.2664L49.7173 67.9755L50.1025 67.5904C55.3353 62.3728 59.1228 55.8864 61.0943 48.7663L61.2398 48.2444L61.7192 48.5011C65.3814 50.4421 68.6848 52.9944 71.4868 56.0478L71.6323 56.2104V56.4158C70.4819 62.856 67.0625 68.6716 61.9931 72.8098L61.8305 72.9382ZM51.1041 67.8043C54.3564 69.7586 57.9034 71.1745 61.6079 71.997C66.3487 68.0386 69.5557 62.548 70.6736 56.4756C68.1031 53.6965 65.103 51.3479 61.7877 49.5193C59.7886 56.4037 56.1187 62.6878 51.1041 67.8129V67.8043Z" fill="#191919" stroke="#191919" stroke-width="2"/>
<path d="M68.9954 73.7169L69.6288 72.9896C72.1934 69.9918 74.1919 66.5534 75.5271 62.8417L75.8524 61.9861L76.3232 62.8417C77.8948 65.6525 79.0865 68.6592 79.8673 71.7832L79.9615 72.1939L79.5677 72.3051C76.4467 73.2237 73.2157 73.7159 69.9627 73.7683L68.9954 73.7169ZM76.015 64.0653C74.7609 67.2337 73.0287 70.1914 70.8787 72.8356C73.5895 72.7176 76.2779 72.2898 78.8914 71.5607C78.2223 68.9606 77.2572 66.4457 76.015 64.0653Z" fill="#191919" stroke="#191919" stroke-width="2"/>
<path d="M37.6812 19.5719L38.1777 18.7163C39.871 15.8802 41.9448 13.2893 44.3413 11.0155L44.6409 10.7332L44.9405 11.0155C47.3366 13.2897 49.4103 15.8806 51.1041 18.7163L51.6006 19.5719L50.6504 19.4008C46.6882 18.6782 42.6278 18.6782 38.6656 19.4008L37.6812 19.5719ZM44.6409 17.9804C46.3864 17.9815 48.1293 18.1159 49.8543 18.3826C48.3694 16.0605 46.6199 13.9185 44.6409 11.9995C42.6614 13.918 40.9119 16.0601 39.4275 18.3826C41.1532 18.1245 42.896 17.9986 44.6409 18.0061V17.9804Z" fill="#191919" stroke="#191919" stroke-width="2"/>
<path d="M44.6406 64.0654L44.341 63.783C39.3099 59.0307 35.7453 52.9381 34.0683 46.2253L33.9741 45.8146L34.3679 45.7033C41.076 43.7434 48.2052 43.7434 54.9133 45.7033L55.23 45.7889V46.2253C53.5521 52.9347 49.9839 59.0223 44.9488 63.7659L44.6406 64.0654ZM35.0271 46.4049C36.6651 52.6605 39.9905 58.3462 44.6406 62.8418C49.2906 58.3462 52.6161 52.6605 54.2541 46.4049C47.9652 44.6508 41.3159 44.6508 35.0271 46.4049Z" fill="#191919" stroke="#191919" stroke-width="2"/>
<path d="M56.2233 39.4572L55.6925 39.3117C48.4495 37.395 40.8322 37.395 33.5891 39.3117L33.0584 39.4572V38.9096C33.0584 38.4219 33.0584 37.9256 33.0584 37.4379C33.0528 33.6921 33.6305 29.9683 34.7705 26.4001L34.8304 26.1948L35.0273 26.1263C41.2523 23.7877 48.115 23.7877 54.34 26.1263L54.5369 26.2033L54.6053 26.4001C55.7407 29.9694 56.3182 33.6925 56.3174 37.4379C56.3174 37.9256 56.3174 38.4219 56.3174 38.9096L56.2233 39.4572ZM44.6408 37.0015C48.2636 36.9987 51.8726 37.447 55.3843 38.3363C55.3843 38.0368 55.3843 37.7373 55.3843 37.4807C55.3886 33.8942 54.8459 30.328 53.775 26.9049C47.8672 24.7356 41.3803 24.7356 35.4725 26.9049C34.4009 30.3278 33.8582 33.8941 33.8631 37.4807C33.8631 37.7801 33.8631 38.0796 33.8631 38.3363C37.3858 37.4432 41.0066 36.9947 44.6408 37.0015Z" fill="#191919" stroke="#191919" stroke-width="2"/>
<path d="M71.6836 47.5171L70.7676 46.8069C68.2644 44.8613 65.5509 43.2024 62.6779 41.8613L62.3954 41.7329V41.4249C62.5152 40.1072 62.5751 38.7639 62.5751 37.4376C62.5781 35.5548 62.4552 33.6739 62.207 31.8075L62.0701 30.6267L62.9261 31.4225C67.3104 35.3615 70.3116 40.605 71.4867 46.3791L71.6836 47.5171ZM63.3199 41.2024C65.7921 42.3792 68.1481 43.7858 70.3567 45.4036C69.1832 40.658 66.7249 36.327 63.2514 32.8856C63.4061 34.398 63.4833 35.9173 63.4826 37.4376C63.4826 38.6868 63.4312 39.9532 63.3199 41.2024Z" fill="#191919" stroke="#191919" stroke-width="2"/>
<path d="M61.8305 72.9382L61.625 72.8954C57.5714 72.0236 53.6991 70.4575 50.1796 68.2664L49.7173 67.9755L50.1025 67.5904C55.3353 62.3728 59.1228 55.8864 61.0943 48.7663L61.2398 48.2444L61.7192 48.5011C65.3814 50.4421 68.6848 52.9944 71.4868 56.0478L71.6323 56.2104V56.4158C70.4819 62.856 67.0625 68.6716 61.9931 72.8098L61.8305 72.9382ZM51.1041 67.8043C54.3564 69.7586 57.9034 71.1745 61.6079 71.997C66.3487 68.0386 69.5557 62.548 70.6736 56.4756C68.1031 53.6965 65.103 51.3479 61.7877 49.5193C59.7886 56.4037 56.1187 62.6878 51.1041 67.8129V67.8043Z" fill="#191919" stroke="#191919" stroke-width="2"/>
<path d="M68.9954 73.7169L69.6288 72.9896C72.1934 69.9918 74.1919 66.5534 75.5271 62.8417L75.8524 61.9861L76.3232 62.8417C77.8948 65.6525 79.0865 68.6592 79.8673 71.7832L79.9615 72.1939L79.5677 72.3051C76.4467 73.2237 73.2157 73.7159 69.9627 73.7683L68.9954 73.7169ZM76.015 64.0653C74.7609 67.2337 73.0287 70.1914 70.8787 72.8356C73.5895 72.7176 76.2779 72.2898 78.8914 71.5607C78.2223 68.9606 77.2572 66.4457 76.015 64.0653Z" fill="#191919" stroke="#191919" stroke-width="2"/>
<path d="M26.0473 42.1181L25.9874 41.502C25.859 40.1587 25.7991 38.7897 25.7991 37.4377C25.8003 35.5122 25.9261 33.5887 26.1757 31.6793C26.6042 28.446 27.3968 25.2714 28.5385 22.2159C30.7359 16.3776 34.1533 11.0745 38.5629 6.66035C40.3646 4.87014 42.3148 3.23573 44.3926 1.77464L44.6409 1.60352L44.8891 1.77464C46.9676 3.23488 48.9179 4.86935 50.7189 6.66035C55.1284 11.0745 58.5459 16.3776 60.7433 22.2159L61.1457 23.294L60.1355 22.755C57.1672 21.157 53.9667 20.0338 50.6504 19.4265H50.4621L50.3593 19.2554C48.7738 16.6188 46.8515 14.1998 44.6409 12.0594C41.2308 15.3552 38.5204 19.3042 36.6715 23.6705C34.8226 28.0368 33.8733 32.7307 33.8802 37.472C33.8802 37.9511 33.8802 38.4303 33.8802 38.9095V39.2517L33.5464 39.3373C31.1466 39.9851 28.809 40.8441 26.561 41.9042L26.0473 42.1181ZM44.6409 2.66451C37.6792 7.6107 32.355 14.5234 29.3517 22.5154C27.5722 27.2891 26.6647 32.3434 26.6723 37.4377C26.6723 38.5586 26.7151 39.6966 26.8007 40.809C28.8161 39.8998 30.8999 39.1503 33.0328 38.5672C33.0328 38.1907 33.0328 37.8142 33.0328 37.4377C33.0252 32.511 34.0243 27.6345 35.9688 23.1073C37.9134 18.5801 40.7624 14.4975 44.3413 11.1097L44.6409 10.8273L44.9405 11.1097C47.2856 13.3274 49.3239 15.8481 51.0014 18.6051C53.9496 19.171 56.8086 20.1293 59.502 21.4544C56.436 13.8923 51.2745 7.36183 44.6238 2.63028L44.6409 2.66451Z" fill="#191919" stroke="#191919" stroke-width="2"/>
<path d="M37.6812 19.5719L38.1777 18.7163C39.871 15.8802 41.9448 13.2893 44.3413 11.0155L44.6409 10.7332L44.9405 11.0155C47.3366 13.2897 49.4103 15.8806 51.1041 18.7163L51.6006 19.5719L50.6504 19.4008C46.6882 18.6782 42.6278 18.6782 38.6656 19.4008L37.6812 19.5719ZM44.6409 17.9804C46.3864 17.9815 48.1293 18.1159 49.8543 18.3826C48.3694 16.0605 46.6199 13.9185 44.6409 11.9995C42.6614 13.918 40.9119 16.0601 39.4275 18.3826C41.1532 18.1245 42.896 17.9986 44.6409 18.0061V17.9804Z" fill="#191919" stroke="#191919" stroke-width="2"/>
<path d="M50.4706 68.4547L50.1795 68.2665C48.0857 66.968 46.1296 65.46 44.3412 63.7658L44.0073 63.4492L44.3412 63.1326C49.2482 58.5119 52.7271 52.5819 54.3656 46.0455V45.9941C54.9424 43.6614 55.2808 41.2762 55.3758 38.8752C55.3758 38.396 55.3758 37.9169 55.3758 37.4377C55.3642 33.7801 54.7867 30.1463 53.6636 26.6652L53.3897 25.8096L54.2458 26.1262C57.443 27.3326 60.3848 29.1293 62.9176 31.4226L63.0289 31.5338V31.6878C63.2796 33.5942 63.4054 35.5149 63.4056 37.4377C63.4056 38.7896 63.3456 40.1587 63.2172 41.5106C62.984 44.0328 62.5285 46.5296 61.8561 48.9718C59.849 56.2465 55.9846 62.8748 50.6418 68.2066L50.4706 68.4547ZM45.2743 63.4406C46.8417 64.8958 48.5412 66.202 50.3507 67.3424C55.4617 62.16 59.1602 55.7562 61.0942 48.7407C61.7539 46.3462 62.2008 43.8981 62.4297 41.425C62.5495 40.1073 62.6094 38.764 62.6094 37.4377C62.6119 35.6069 62.4975 33.7779 62.267 31.9616C60.0679 29.9927 57.5531 28.4077 54.8279 27.2727C55.7832 30.5766 56.2674 33.9986 56.2661 37.4377C56.2661 37.9254 56.2661 38.4217 56.2661 38.9094C56.1604 41.3511 55.8105 43.7761 55.2217 46.1481V46.208C53.5871 52.7705 50.1403 58.7417 45.2743 63.4406Z" fill="#191919" stroke="#191919" stroke-width="2"/>
<path d="M20.2774 73.717H19.31C16.059 73.6596 12.8307 73.1616 9.71363 72.2367L9.31128 72.117L9.41401 71.7148C10.1881 68.5914 11.3802 65.5867 12.9581 62.7819L13.4204 61.9263L13.7457 62.7819C15.0806 66.4955 17.0824 69.9344 19.6524 72.9298L20.2774 73.717ZM10.3557 71.518C12.9819 72.2567 15.6853 72.6874 18.4112 72.8015C16.262 70.1692 14.5297 67.2229 13.2748 64.0654C12.0236 66.4316 11.0443 68.9317 10.3557 71.518Z" fill="#191919" stroke="#191919" stroke-width="2"/>
<path d="M17.5552 47.5171L17.7778 46.3791C18.9354 40.6097 21.9151 35.3641 26.2784 31.4139L27.1345 30.6267L26.9804 31.7904C26.7336 33.6627 26.6107 35.5492 26.6123 37.4376C26.6123 38.7639 26.6722 40.1072 26.792 41.4249V41.7244L26.5181 41.8613C23.6412 43.2003 20.9246 44.8593 18.4198 46.8069L17.5552 47.5171ZM26.0045 32.877C22.5379 36.3231 20.0884 40.6573 18.9249 45.4036C21.1335 43.7858 23.4894 42.3792 25.9617 41.2024C25.8504 39.9532 25.799 38.6868 25.799 37.4376C25.7975 35.9142 25.8775 34.3919 26.0387 32.877H26.0045Z" fill="#191919" stroke="#191919" stroke-width="2"/>
<path d="M27.4426 72.9468L27.28 72.8099C22.2311 68.6671 18.833 62.8545 17.7007 56.4244V56.1762L17.812 56.0564C20.6049 52.9888 23.9027 50.4219 27.5625 48.4669L28.0418 48.2102L28.1874 48.7407C30.1537 55.863 33.942 62.3506 39.1791 67.5648L39.5644 67.9498L39.1021 68.2407C35.5807 70.4343 31.7052 72.0006 27.6481 72.8698L27.4426 72.9468ZM18.5995 56.4842C19.7176 62.5586 22.9281 68.05 27.6737 72.0056C31.3788 71.1848 34.9261 69.7689 38.1776 67.8129C33.161 62.6894 29.4907 56.4048 27.494 49.5193C24.1746 51.3491 21.1714 53.7008 18.5995 56.4842Z" fill="#191919" stroke="#191919" stroke-width="2"/>
<path d="M44.6406 64.0654L44.341 63.783C39.3099 59.0307 35.7453 52.9381 34.0683 46.2253L33.9741 45.8146L34.3679 45.7033C41.076 43.7434 48.2052 43.7434 54.9133 45.7033L55.23 45.7889V46.2253C53.5521 52.9347 49.9839 59.0223 44.9488 63.7659L44.6406 64.0654ZM35.0271 46.4049C36.6651 52.6605 39.9905 58.3462 44.6406 62.8418C49.2906 58.3462 52.6161 52.6605 54.2541 46.4049C47.9652 44.6508 41.3159 44.6508 35.0271 46.4049Z" fill="#191919" stroke="#191919" stroke-width="2"/>
<path d="M56.2233 39.4572L55.6925 39.3117C48.4495 37.395 40.8322 37.395 33.5891 39.3117L33.0584 39.4572V38.9096C33.0584 38.4219 33.0584 37.9256 33.0584 37.4379C33.0528 33.6921 33.6305 29.9683 34.7705 26.4001L34.8304 26.1948L35.0273 26.1263C41.2523 23.7877 48.115 23.7877 54.34 26.1263L54.5369 26.2033L54.6053 26.4001C55.7407 29.9694 56.3182 33.6925 56.3174 37.4379C56.3174 37.9256 56.3174 38.4219 56.3174 38.9096L56.2233 39.4572ZM44.6408 37.0015C48.2636 36.9987 51.8726 37.447 55.3843 38.3363C55.3843 38.0368 55.3843 37.7373 55.3843 37.4807C55.3886 33.8942 54.8459 30.328 53.775 26.9049C47.8672 24.7356 41.3803 24.7356 35.4725 26.9049C34.4009 30.3278 33.8582 33.8941 33.8631 37.4807C33.8631 37.7801 33.8631 38.0796 33.8631 38.3363C37.3858 37.4432 41.0066 36.9947 44.6408 37.0015Z" fill="#191919" stroke="#191919" stroke-width="2"/>
<path d="M78.2666 54.2596L77.539 53.4039C75.5335 50.9685 73.2623 48.7644 70.7676 46.8326L70.6306 46.7043V46.5503C69.883 42.7782 68.3219 39.2144 66.0561 36.1067C63.7903 32.999 60.8741 30.4222 57.5106 28.5556C54.1471 26.689 50.417 25.5774 46.58 25.2982C42.7429 25.019 38.8911 25.5789 35.2926 26.939L34.4365 27.2556L34.7105 26.3999C35.5498 23.7336 36.699 21.1749 38.1347 18.7762L38.2374 18.605H38.4257C42.506 17.852 46.6898 17.852 50.7701 18.605C58.5077 20.0341 65.5007 24.1254 70.5357 30.1692C75.5707 36.213 78.3301 43.8279 78.3351 51.6927C78.3351 52.1718 78.3351 52.651 78.3351 53.1216L78.2666 54.2596ZM71.4182 46.2166C73.6175 47.9291 75.6471 49.8488 77.4791 51.9494V51.6927C77.4816 45.7514 75.8695 39.9209 72.8148 34.8242C69.7601 29.7274 65.3775 25.5558 60.1353 22.7549C57.167 21.1569 53.9665 20.0338 50.6502 19.4264C46.7383 18.7205 42.7315 18.7205 38.8195 19.4264C37.6125 21.4639 36.6117 23.6164 35.8319 25.8523C39.5043 24.6112 43.3985 24.1632 47.2569 24.5381C51.1154 24.913 54.8504 26.1022 58.2149 28.0271C61.5794 29.952 64.4968 32.5687 66.7743 35.7043C69.0518 38.8399 70.6376 42.4229 71.4267 46.2166H71.4182Z" fill="#191919" stroke="#191919" stroke-width="2"/>
<path d="M37.6812 19.5719L38.1777 18.7163C39.871 15.8802 41.9448 13.2893 44.3413 11.0155L44.6409 10.7332L44.9405 11.0155C47.3366 13.2897 49.4103 15.8806 51.1041 18.7163L51.6006 19.5719L50.6504 19.4008C46.6882 18.6782 42.6278 18.6782 38.6656 19.4008L37.6812 19.5719ZM44.6409 17.9804C46.3864 17.9815 48.1293 18.1159 49.8543 18.3826C48.3694 16.0605 46.6199 13.9185 44.6409 11.9995C42.6614 13.918 40.9119 16.0601 39.4275 18.3826C41.1532 18.1245 42.896 17.9986 44.6409 18.0061V17.9804Z" fill="#191919" stroke="#191919" stroke-width="2"/>
<path d="M19.9779 73.7083H19.1219L18.9935 73.5629C16.3619 70.4852 14.3086 66.9575 12.9326 63.1497V63.0727C11.7707 59.8759 11.1066 56.5198 10.9637 53.1216C10.9637 52.651 10.9637 52.1719 10.9637 51.6927C10.9549 45.5951 12.6046 39.6097 15.7365 34.3769C18.8683 29.1441 23.3645 24.8607 28.744 21.9849L29.7627 21.4373L29.3518 22.5154C28.2362 25.5108 27.4609 28.622 27.0404 31.7905V31.9531L26.9206 32.0643C23.6017 35.069 21.0975 38.8642 19.6411 43.0966C18.1847 47.329 17.8235 51.8609 18.5911 56.2704C19.6746 62.4916 22.9514 68.1192 27.828 72.134L28.5214 72.7072L27.6653 72.8955C25.1389 73.4379 22.562 73.7104 19.9779 73.7083ZM19.5242 72.8527C21.8956 72.8861 24.2644 72.6826 26.5953 72.2452C21.9173 68.1355 18.7801 62.5553 17.7008 56.4244C16.9046 51.8983 17.2664 47.2444 18.7526 42.8956C20.2389 38.5468 22.8012 34.6443 26.2015 31.5509C26.5767 28.7555 27.2277 26.0041 28.1447 23.3368C23.1742 26.2181 19.0483 30.3541 16.1803 35.3307C13.3122 40.3072 11.8026 45.9496 11.8026 51.6927C11.8026 52.1633 11.8026 52.6254 11.8026 53.0874C11.9431 56.4172 12.5897 59.7063 13.7202 62.8417V62.9187C15.0532 66.5412 17.0183 69.8988 19.5242 72.8356V72.8527Z" fill="#191919" stroke="#191919" stroke-width="2"/>
<path d="M20.2774 73.717H19.31C16.059 73.6596 12.8307 73.1616 9.71363 72.2367L9.31128 72.117L9.41401 71.7148C10.1881 68.5914 11.3802 65.5867 12.9581 62.7819L13.4204 61.9263L13.7457 62.7819C15.0806 66.4955 17.0824 69.9344 19.6524 72.9298L20.2774 73.717ZM10.3557 71.518C12.9819 72.2567 15.6853 72.6874 18.4112 72.8015C16.262 70.1692 14.5297 67.2229 13.2748 64.0654C12.0236 66.4316 11.0443 68.9317 10.3557 71.518Z" fill="#191919" stroke="#191919" stroke-width="2"/>
<path d="M17.5552 47.5171L17.7778 46.3791C18.9354 40.6097 21.9151 35.3641 26.2784 31.4139L27.1345 30.6267L26.9804 31.7904C26.7336 33.6627 26.6107 35.5492 26.6123 37.4376C26.6123 38.7639 26.6722 40.1072 26.792 41.4249V41.7244L26.5181 41.8613C23.6412 43.2003 20.9246 44.8593 18.4198 46.8069L17.5552 47.5171ZM26.0045 32.877C22.5379 36.3231 20.0884 40.6573 18.9249 45.4036C21.1335 43.7858 23.4894 42.3792 25.9617 41.2024C25.8504 39.9532 25.799 38.6868 25.799 37.4376C25.7975 35.9142 25.8775 34.3919 26.0387 32.877H26.0045Z" fill="#191919" stroke="#191919" stroke-width="2"/>
<path d="M27.4426 72.9468L27.28 72.8099C22.2311 68.6671 18.833 62.8545 17.7007 56.4244V56.1762L17.812 56.0564C20.6049 52.9888 23.9027 50.4219 27.5625 48.4669L28.0418 48.2102L28.1874 48.7407C30.1537 55.863 33.942 62.3506 39.1791 67.5648L39.5644 67.9498L39.1021 68.2407C35.5807 70.4343 31.7052 72.0006 27.6481 72.8698L27.4426 72.9468ZM18.5995 56.4842C19.7176 62.5586 22.9281 68.05 27.6737 72.0056C31.3788 71.1848 34.9261 69.7689 38.1776 67.8129C33.161 62.6894 29.4907 56.4048 27.494 49.5193C24.1746 51.3491 21.1714 53.7008 18.5995 56.4842Z" fill="#191919" stroke="#191919" stroke-width="2"/>
<path d="M44.6406 64.0654L44.341 63.783C39.3099 59.0307 35.7453 52.9381 34.0683 46.2253L33.9741 45.8146L34.3679 45.7033C41.076 43.7434 48.2052 43.7434 54.9133 45.7033L55.23 45.7889V46.2253C53.5521 52.9347 49.9839 59.0223 44.9488 63.7659L44.6406 64.0654ZM35.0271 46.4049C36.6651 52.6605 39.9905 58.3462 44.6406 62.8418C49.2906 58.3462 52.6161 52.6605 54.2541 46.4049C47.9652 44.6508 41.3159 44.6508 35.0271 46.4049Z" fill="#191919" stroke="#191919" stroke-width="2"/>
<path d="M56.2233 39.4572L55.6925 39.3117C48.4495 37.395 40.8322 37.395 33.5891 39.3117L33.0584 39.4572V38.9096C33.0584 38.4219 33.0584 37.9256 33.0584 37.4379C33.0528 33.6921 33.6305 29.9683 34.7705 26.4001L34.8304 26.1948L35.0273 26.1263C41.2523 23.7877 48.115 23.7877 54.34 26.1263L54.5369 26.2033L54.6053 26.4001C55.7407 29.9694 56.3182 33.6925 56.3174 37.4379C56.3174 37.9256 56.3174 38.4219 56.3174 38.9096L56.2233 39.4572ZM44.6408 37.0015C48.2636 36.9987 51.8726 37.447 55.3843 38.3363C55.3843 38.0368 55.3843 37.7373 55.3843 37.4807C55.3886 33.8942 54.8459 30.328 53.775 26.9049C47.8672 24.7356 41.3803 24.7356 35.4725 26.9049C34.4009 30.3278 33.8582 33.8941 33.8631 37.4807C33.8631 37.7801 33.8631 38.0796 33.8631 38.3363C37.3858 37.4432 41.0066 36.9947 44.6408 37.0015Z" fill="#191919" stroke="#191919" stroke-width="2"/>
<path d="M69.3039 80.9215C66.9174 80.9155 64.5354 80.7152 62.1815 80.3225L61.043 80.1514L62.0702 79.5439C64.9227 77.758 67.4861 75.5479 69.672 72.9897L69.7919 72.8357H69.9888C73.0229 72.7837 76.0379 72.3437 78.9602 71.5265C77.7147 66.8068 75.5079 62.3949 72.4779 58.5669C69.4479 54.7389 65.6599 51.5773 61.3511 49.2799L61.043 49.1088L61.1371 48.7751C61.7968 46.3805 62.2437 43.9324 62.4726 41.4593L62.5239 40.8433L63.0889 41.1085C69.9683 44.3121 75.8881 49.261 80.2588 55.4626C84.6294 61.6641 87.2985 68.9018 88.0002 76.455V76.7545L87.7263 76.8828C81.9662 79.5788 75.6813 80.9695 69.321 80.9557L69.3039 80.9215ZM63.4485 79.6551C69.0978 80.4275 74.8443 80.0727 80.3556 78.6112C82.6574 77.9993 84.9027 77.1921 87.0671 76.1983C86.8275 73.8334 86.3923 71.4923 85.7659 69.1992C84.1473 63.347 81.3011 57.9062 77.4162 53.2384C73.5314 48.5706 68.697 44.7828 63.2345 42.1267C63.0122 44.332 62.623 46.5173 62.0702 48.6638C66.4821 51.0702 70.3459 54.3661 73.4169 58.3429C76.4879 62.3197 78.6991 66.8906 79.9105 71.7661L80.0046 72.1768L79.6108 72.2881C76.5507 73.1906 73.3841 73.6827 70.1942 73.7512C68.2169 76.0088 65.9485 77.9941 63.4485 79.6551Z" fill="#191919" stroke="#191919" stroke-width="2"/>
<path d="M19.9778 80.9214C16.1893 80.928 12.4163 80.439 8.75485 79.4668H8.69493C6.24872 78.8171 3.86294 77.9583 1.56398 76.8999L1.29004 76.7202V76.4122C1.52745 73.8905 1.98286 71.3941 2.65117 68.951C4.26835 63.0439 7.12528 57.5487 11.032 52.8307L11.7596 51.9751L11.8024 53.1045C11.943 56.4344 12.5895 59.7234 13.72 62.8588V63.0043V63.1241L13.6601 63.2182C12.1951 65.838 11.0675 68.6324 10.3043 71.535C13.2254 72.3592 16.241 72.8021 19.2758 72.8527C22.0107 72.9039 24.7425 72.6397 27.4169 72.0655C31.3735 71.2146 35.153 69.6862 38.5884 67.5478L38.8795 67.3681L39.1277 67.6077C40.8906 69.3624 42.8009 70.9626 44.8376 72.3907L45.3513 72.7501L44.8376 73.1094C42.2149 74.9411 39.3987 76.4791 36.4397 77.6957L36.3884 77.7556C33.3955 78.9567 30.277 79.8177 27.0916 80.3225C24.7406 80.7155 22.3614 80.9158 19.9778 80.9214ZM8.86614 78.6112H8.92607C14.8136 80.1655 20.9635 80.4571 26.9717 79.4668C30.1266 78.9623 33.214 78.1012 36.1744 76.8999H36.2514C38.9352 75.796 41.4971 74.4168 43.896 72.7843C42.0993 71.4905 40.4049 70.0601 38.8281 68.5061C32.9595 72.0744 26.1949 73.8968 19.3272 73.7597C16.0684 73.6899 12.8343 73.1776 9.71364 72.2367L9.31129 72.1169L9.41402 71.7147C10.1698 68.6579 11.3209 65.7125 12.8382 62.953C11.8461 60.1492 11.2329 57.2256 11.0148 54.2597C7.54343 58.6898 4.99372 63.7693 3.51579 69.1991C2.88892 71.4951 2.45369 73.839 2.21458 76.2068C4.36114 77.1915 6.58602 77.9957 8.86614 78.6112Z" fill="#191919" stroke="#191919" stroke-width="2"/>
<path d="M20.2774 73.717H19.31C16.059 73.6596 12.8307 73.1616 9.71363 72.2367L9.31128 72.117L9.41401 71.7148C10.1881 68.5914 11.3802 65.5867 12.9581 62.7819L13.4204 61.9263L13.7457 62.7819C15.0806 66.4955 17.0824 69.9344 19.6524 72.9298L20.2774 73.717ZM10.3557 71.518C12.9819 72.2567 15.6853 72.6874 18.4112 72.8015C16.262 70.1692 14.5297 67.2229 13.2748 64.0654C12.0236 66.4316 11.0443 68.9317 10.3557 71.518Z" fill="#191919" stroke="#191919" stroke-width="2"/>
<path d="M17.8548 57.2971L17.7007 56.4415C17.4333 54.8784 17.2987 53.2955 17.2983 51.7098C17.2979 49.9262 17.4699 48.1467 17.812 46.3962V46.2337L17.9404 46.1395C20.4941 44.1499 23.2655 42.4563 26.2013 41.0913C28.4961 40.0228 30.8828 39.1636 33.3323 38.5243C40.7206 36.5648 48.4925 36.5648 55.8808 38.5243L56.2232 38.6185V38.9607C56.1317 41.4038 55.7961 43.8316 55.2216 46.208L55.1189 46.6444L54.6823 46.516C45.7751 43.8903 36.1923 44.8675 27.999 49.237C24.4256 51.1415 21.2058 53.6449 18.4797 56.6383L17.8548 57.2971ZM18.6338 46.7043C18.3261 48.3493 18.1713 50.0192 18.1715 51.6927C18.1712 52.9321 18.257 54.17 18.4283 55.3976C22.7999 50.818 28.3002 47.4687 34.3767 45.6861C40.9284 43.7745 47.8841 43.73 54.4598 45.5577C54.938 43.4777 55.2245 41.3583 55.3158 39.226C48.1738 37.3971 40.6822 37.4266 33.5549 39.3115C31.1551 39.9593 28.8175 40.8183 26.5694 41.8785C23.7562 43.1932 21.0951 44.8114 18.6338 46.7043Z" fill="#191919" stroke="#191919" stroke-width="2"/>
<path d="M27.4426 72.9468L27.28 72.8099C22.2311 68.6671 18.833 62.8545 17.7007 56.4244V56.1762L17.812 56.0564C20.6049 52.9888 23.9027 50.4219 27.5625 48.4669L28.0418 48.2102L28.1874 48.7407C30.1537 55.863 33.942 62.3506 39.1791 67.5648L39.5644 67.9498L39.1021 68.2407C35.5807 70.4343 31.7052 72.0006 27.6481 72.8698L27.4426 72.9468ZM18.5995 56.4842C19.7176 62.5586 22.9281 68.05 27.6737 72.0056C31.3788 71.1848 34.9261 69.7689 38.1776 67.8129C33.161 62.6894 29.4907 56.4048 27.494 49.5193C24.1746 51.3491 21.1714 53.7008 18.5995 56.4842Z" fill="#191919" stroke="#191919" stroke-width="2"/>
<path d="M44.6406 64.0654L44.341 63.783C39.3099 59.0307 35.7453 52.9381 34.0683 46.2253L33.9741 45.8146L34.3679 45.7033C41.076 43.7434 48.2052 43.7434 54.9133 45.7033L55.23 45.7889V46.2253C53.5521 52.9347 49.9839 59.0223 44.9488 63.7659L44.6406 64.0654ZM35.0271 46.4049C36.6651 52.6605 39.9905 58.3462 44.6406 62.8418C49.2906 58.3462 52.6161 52.6605 54.2541 46.4049C47.9652 44.6508 41.3159 44.6508 35.0271 46.4049Z" fill="#191919" stroke="#191919" stroke-width="2"/>
<path d="M44.6406 79.0218C41.7714 79.0234 38.92 78.573 36.1913 77.687L35.0613 77.3276L36.157 76.8998C39.0592 75.7064 41.8209 74.1971 44.3923 72.3992L44.6406 72.228L44.8888 72.3992C47.4613 74.1953 50.2228 75.7046 53.1241 76.8998L54.2198 77.3533L53.0898 77.7127C50.3593 78.5884 47.5082 79.0302 44.6406 79.0218ZM37.5952 77.2079C42.2061 78.457 47.0665 78.457 51.6773 77.2079C49.215 76.1129 46.8593 74.7925 44.6406 73.2634C42.4199 74.7943 40.0613 76.1149 37.5952 77.2079Z" fill="#191919" stroke="#191919" stroke-width="2"/>
<path d="M61.8305 72.9382L61.625 72.8954C57.5714 72.0236 53.6991 70.4575 50.1796 68.2664L49.7173 67.9755L50.1025 67.5904C55.3353 62.3728 59.1228 55.8864 61.0943 48.7663L61.2398 48.2444L61.7192 48.5011C65.3814 50.4421 68.6848 52.9944 71.4868 56.0478L71.6323 56.2104V56.4158C70.4819 62.856 67.0625 68.6716 61.9931 72.8098L61.8305 72.9382ZM51.1041 67.8043C54.3564 69.7586 57.9034 71.1745 61.6079 71.997C66.3487 68.0386 69.5557 62.548 70.6736 56.4756C68.1031 53.6965 65.103 51.3479 61.7877 49.5193C59.7886 56.4037 56.1187 62.6878 51.1041 67.8129V67.8043Z" fill="#191919" stroke="#191919" stroke-width="2"/>
<path d="M68.9954 73.7169L69.6288 72.9896C72.1934 69.9918 74.1919 66.5534 75.5271 62.8417L75.8524 61.9861L76.3232 62.8417C77.8948 65.6525 79.0865 68.6592 79.8673 71.7832L79.9615 72.1939L79.5677 72.3051C76.4467 73.2237 73.2157 73.7159 69.9627 73.7683L68.9954 73.7169ZM76.015 64.0653C74.7609 67.2337 73.0287 70.1914 70.8787 72.8356C73.5895 72.7176 76.2779 72.2898 78.8914 71.5607C78.2223 68.9606 77.2572 66.4457 76.015 64.0653Z" fill="#191919" stroke="#191919" stroke-width="2"/>
<path d="M20.2774 73.717H19.31C16.059 73.6596 12.8307 73.1616 9.71363 72.2367L9.31128 72.117L9.41401 71.7148C10.1881 68.5914 11.3802 65.5867 12.9581 62.7819L13.4204 61.9263L13.7457 62.7819C15.0806 66.4955 17.0824 69.9344 19.6524 72.9298L20.2774 73.717ZM10.3557 71.518C12.9819 72.2567 15.6853 72.6874 18.4112 72.8015C16.262 70.1692 14.5297 67.2229 13.2748 64.0654C12.0236 66.4316 11.0443 68.9317 10.3557 71.518Z" fill="#191919" stroke="#191919" stroke-width="2"/>
<path d="M52.9361 77.7556L52.7906 77.6957C49.83 76.4824 47.0135 74.9442 44.3926 73.1095C42.3142 71.6492 40.3639 70.0148 38.5629 68.2237C33.2188 62.8929 29.3542 56.2643 27.3486 48.9889L27.2544 48.6638L27.5626 48.4927C29.7444 47.3344 32.0392 46.4026 34.411 45.7118L34.8476 45.5835L34.9589 46.0199C36.5648 52.4282 39.9299 58.2606 44.6748 62.8596C49.4197 67.4585 55.3557 70.6411 61.8134 72.0485L62.6695 72.2367L61.9761 72.81C59.3422 74.9817 56.3216 76.6365 53.0731 77.6871L52.9361 77.7556ZM28.2817 49.0916C30.2727 56.0875 34.0246 62.4565 39.1793 67.5906C40.9421 69.3453 42.8524 70.9455 44.8892 72.3736C47.4145 74.1412 50.1241 75.6302 52.9703 76.8144C55.7746 75.8855 58.4023 74.4913 60.7433 72.6902C57.0082 71.7893 53.4417 70.2958 50.1796 68.2665C42.2808 63.3682 36.5609 55.6301 34.197 46.6445C32.1561 47.275 30.1763 48.0884 28.2817 49.0745V49.0916Z" fill="#191919" stroke="#191919" stroke-width="2"/>
<path d="M27.4426 72.9468L27.28 72.8099C22.2311 68.6671 18.833 62.8545 17.7007 56.4244V56.1762L17.812 56.0564C20.6049 52.9888 23.9027 50.4219 27.5625 48.4669L28.0418 48.2102L28.1874 48.7407C30.1537 55.863 33.942 62.3506 39.1791 67.5648L39.5644 67.9498L39.1021 68.2407C35.5807 70.4343 31.7052 72.0006 27.6481 72.8698L27.4426 72.9468ZM18.5995 56.4842C19.7176 62.5586 22.9281 68.05 27.6737 72.0056C31.3788 71.1848 34.9261 69.7689 38.1776 67.8129C33.161 62.6894 29.4907 56.4048 27.494 49.5193C24.1746 51.3491 21.1714 53.7008 18.5995 56.4842Z" fill="#191919" stroke="#191919" stroke-width="2"/>
<path d="M44.6406 64.0654L44.341 63.783C39.3099 59.0307 35.7453 52.9381 34.0683 46.2253L33.9741 45.8146L34.3679 45.7033C41.076 43.7434 48.2052 43.7434 54.9133 45.7033L55.23 45.7889V46.2253C53.5521 52.9347 49.9839 59.0223 44.9488 63.7659L44.6406 64.0654ZM35.0271 46.4049C36.6651 52.6605 39.9905 58.3462 44.6406 62.8418C49.2906 58.3462 52.6161 52.6605 54.2541 46.4049C47.9652 44.6508 41.3159 44.6508 35.0271 46.4049Z" fill="#191919" stroke="#191919" stroke-width="2"/>
<path d="M44.6406 85.3879C38.3269 85.3845 32.1416 83.6054 26.7918 80.254L25.8159 79.6465L26.9716 79.4669C30.1265 78.9624 33.2138 78.1012 36.1742 76.8999H36.4053H36.4738C41.7915 78.5992 47.5069 78.5992 52.8245 76.8999C57.3976 75.4054 61.4782 72.6964 64.6296 69.0626C67.7811 65.4289 69.885 61.0071 70.7161 56.2704L70.8616 55.4148L71.4609 56.0651C73.3313 58.1155 74.9626 60.3718 76.3233 62.7904L76.4174 62.9701L76.3489 63.1498C73.9945 69.6605 69.6912 75.2885 64.0241 79.2689C58.3571 83.2492 51.6012 85.3887 44.6748 85.3964L44.6406 85.3879ZM28.2386 80.1343C33.4018 83.1097 39.277 84.6265 45.2361 84.5225C51.1951 84.4185 57.0138 82.6976 62.0699 79.5439C64.9224 77.758 67.4858 75.5479 69.6717 72.9897C72.1935 70.0437 74.1678 66.6707 75.5015 63.03C74.3412 60.9874 72.982 59.0643 71.4437 57.2887C70.6618 61.0363 69.1007 64.578 66.8618 67.6841C64.6229 70.7902 61.7561 73.3916 58.4471 75.3196C55.1381 77.2475 51.4608 78.4591 47.6534 78.8758C43.846 79.2925 39.9934 78.905 36.3454 77.7385C33.7294 78.804 31.0137 79.6065 28.2386 80.1343Z" fill="#191919" stroke="#191919" stroke-width="2"/>
<path d="M44.6406 79.0218C41.7714 79.0234 38.92 78.573 36.1913 77.687L35.0613 77.3276L36.157 76.8998C39.0592 75.7064 41.8209 74.1971 44.3923 72.3992L44.6406 72.228L44.8888 72.3992C47.4613 74.1953 50.2228 75.7046 53.1241 76.8998L54.2198 77.3533L53.0898 77.7127C50.3593 78.5884 47.5082 79.0302 44.6406 79.0218ZM37.5952 77.2079C42.2061 78.457 47.0665 78.457 51.6773 77.2079C49.215 76.1129 46.8593 74.7925 44.6406 73.2634C42.4199 74.7943 40.0613 76.1149 37.5952 77.2079Z" fill="#191919" stroke="#191919" stroke-width="2"/>
<path d="M61.8305 72.9382L61.625 72.8954C57.5714 72.0236 53.6991 70.4575 50.1796 68.2664L49.7173 67.9755L50.1025 67.5904C55.3353 62.3728 59.1228 55.8864 61.0943 48.7663L61.2398 48.2444L61.7192 48.5011C65.3814 50.4421 68.6848 52.9944 71.4868 56.0478L71.6323 56.2104V56.4158C70.4819 62.856 67.0625 68.6716 61.9931 72.8098L61.8305 72.9382ZM51.1041 67.8043C54.3564 69.7586 57.9034 71.1745 61.6079 71.997C66.3487 68.0386 69.5557 62.548 70.6736 56.4756C68.1031 53.6965 65.103 51.3479 61.7877 49.5193C59.7886 56.4037 56.1187 62.6878 51.1041 67.8129V67.8043Z" fill="#191919" stroke="#191919" stroke-width="2"/>
<path d="M68.9954 73.7169L69.6288 72.9896C72.1934 69.9918 74.1919 66.5534 75.5271 62.8417L75.8524 61.9861L76.3232 62.8417C77.8948 65.6525 79.0865 68.6592 79.8673 71.7832L79.9615 72.1939L79.5677 72.3051C76.4467 73.2237 73.2157 73.7159 69.9627 73.7683L68.9954 73.7169ZM76.015 64.0653C74.7609 67.2337 73.0287 70.1914 70.8787 72.8356C73.5895 72.7176 76.2779 72.2898 78.8914 71.5607C78.2223 68.9606 77.2572 66.4457 76.015 64.0653Z" fill="#191919" stroke="#191919" stroke-width="2"/>
</svg>
